HIERARCHY
ROOT hip
{
	OFFSET 0.000000 0.000000 0.000000 
	CHANNELS 6 Xposition Yposition Zposition Xrotation Zrotation Yrotation
	JOINT abdomen
	{
		OFFSET 0.000000 3.402643 0.000000 
		CHANNELS 3 Xrotation Zrotation Yrotation
		JOINT chest
		{
			OFFSET 0.000000 8.438565 -0.680529 
			CHANNELS 3 Xrotation Zrotation Yrotation
			JOINT neck
			{
				OFFSET 0.000000 10.207942 -0.272212 
				CHANNELS 3 Xrotation Zrotation Yrotation
				JOINT head
				{
					OFFSET 0.000000 3.130431 0.000000 
					CHANNELS 3 Xrotation Zrotation Yrotation
					End Site
					{
						OFFSET 0.000000 3.130435 0.000000 
					}
				}
			}
			JOINT lCollar
			{
				OFFSET 3.470700 6.669187 -0.816635 
				CHANNELS 3 Yrotation Zrotation Xrotation
				JOINT lShldr
				{
					OFFSET 3.198488 0.000000 0.000000 
					CHANNELS 3 Zrotation Yrotation Xrotation
					JOINT lForeArm
					{
						OFFSET 10.139888 0.000000 0.000000 
						CHANNELS 3 Yrotation Zrotation Xrotation
						JOINT lHand
						{
							OFFSET 8.370511 0.000000 0.000000 
							CHANNELS 3 Zrotation Yrotation Xrotation
							End Site
							{
								OFFSET 4.083176 0.000000 0.000000 
							}
						}
					}
				}
			}
			JOINT rCollar
			{
				OFFSET -3.470700 6.669187 -0.816635 
				CHANNELS 3 Yrotation Zrotation Xrotation
				JOINT rShldr
				{
					OFFSET -3.198488 0.000000 0.000000 
					CHANNELS 3 Zrotation Yrotation Xrotation
					JOINT rForeArm
					{
						OFFSET -10.139888 0.000000 0.000000 
						CHANNELS 3 Yrotation Zrotation Xrotation
						JOINT rHand
						{
							OFFSET -8.370511 0.000000 0.000000 
							CHANNELS 3 Zrotation Yrotation Xrotation
							End Site
							{
								OFFSET -4.083176 0.000000 0.000000 
							}
						}
					}
				}
			}
		}
	}
	JOINT lThigh
	{
		OFFSET 5.308129 -1.633274 1.361059 
		CHANNELS 3 Xrotation Zrotation Yrotation
		JOINT lShin
		{
			OFFSET -2.041588 -20.007561 0.000000 
			CHANNELS 3 Xrotation Zrotation Yrotation
			JOINT lFoot
			{
				OFFSET 0.000000 -19.190928 -1.224953 
				CHANNELS 3 Xrotation Yrotation Zrotation
				End Site
				{
					OFFSET 0.000000 -2.449906 4.627600 
				}
			}
		}
	}
	JOINT rThigh
	{
		OFFSET -5.308129 -1.633274 1.361059 
		CHANNELS 3 Xrotation Zrotation Yrotation
		JOINT rShin
		{
			OFFSET 2.041588 -20.007561 0.000000 
			CHANNELS 3 Xrotation Zrotation Yrotation
			JOINT rFoot
			{
				OFFSET 0.000000 -19.190928 -1.224953 
				CHANNELS 3 Xrotation Yrotation Zrotation
				End Site
				{
					OFFSET 0.000000 -2.449906 4.627600 
				}
			}
		}
	}
}
MOTION
Frames: 16
Frame Time: 0.031250
0.224123 48.713997 -4.189984 0.000000 0.000000 0.000000 17.878050 -0.211150 -0.111150 -7.804350 -0.442000 0.021800 0.000000 0.000000 0.000000 -9.000000 0.000000 0.000000 2.017160 -5.694255 -0.065725 -66.560349 -5.759065 33.123100 -11.988550 10.184530 -35.902531 9.395795 0.470094 0.543967 -2.021910 5.690305 -0.063376 63.300800 5.338865 39.243698 14.572600 -12.263631 -35.568581 -2.168445 -6.266394 -5.766933 -24.988091 11.916090 -4.923146 40.627453 -3.225675 -3.263474 -14.650295 7.923580 -8.957661 -26.604071 -12.887794 6.570546 42.824699 2.963745 3.147386 -12.820129 -4.907860 10.030105 
0.448245 43.929447 -8.685615 0.000000 0.000000 0.000000 35.756100 -0.422300 -0.222300 -15.608700 -0.884000 0.043600 0.000000 0.000000 0.000000 -18.000000 0.000000 0.000000 2.012400 -5.698200 -0.068100 -63.020000 -21.496901 50.254601 -1.461500 29.672800 -71.952797 12.822100 1.113300 0.912200 -2.021900 5.690300 -0.063400 56.500900 20.656500 62.495800 6.629600 -33.831001 -71.284897 1.632600 -12.705900 -11.709600 -42.433899 19.910000 -9.982600 65.454903 -3.179600 -5.620800 -20.745001 14.766600 -17.097700 -45.676201 -21.443600 13.040500 69.910797 2.695800 5.699300 -17.041300 -8.244700 19.094200 
0.817388 46.493057 -6.246636 0.000000 0.000000 0.000000 34.292702 -1.139900 -0.464000 -19.210850 -1.591600 0.258000 0.000000 0.000000 0.000000 -18.000000 0.000000 0.000000 2.012400 -5.698200 -0.068100 -14.095350 -24.266251 10.487500 -4.163250 31.208000 -60.974949 12.946550 1.010750 0.907400 -2.061200 5.611750 -0.065950 12.223499 23.980251 22.562599 7.082550 -31.762600 -67.357544 1.588350 -12.697599 -11.029650 -30.680599 18.820549 -6.423900 49.900551 -3.190600 -4.110600 -16.522650 14.713900 -16.017050 -32.501152 -21.204550 8.367300 52.754398 2.832050 4.068800 -12.184050 -7.947300 18.373550 
1.186531 50.850872 -3.807657 0.000000 0.000000 0.000000 32.829300 -1.857500 -0.705700 -22.813000 -2.299200 0.472400 0.000000 0.000000 0.000000 -18.000000 0.000000 0.000000 2.012400 -5.698200 -0.068100 34.829300 -27.035601 -29.279600 -6.865000 32.743198 -49.997101 13.071000 0.908200 0.902600 -2.100500 5.533200 -0.068500 -32.053902 27.304001 -17.370600 7.535500 -29.694201 -63.430199 1.544100 -12.689300 -10.349700 -18.927299 17.731100 -2.865200 34.346199 -3.201600 -2.600400 -12.300300 14.661200 -14.936400 -19.326099 -20.965500 3.694100 35.598000 2.968300 2.438300 -7.326800 -7.649900 17.652901 
0.982910 64.454742 -1.165306 0.000000 0.000000 0.000000 16.407141 -1.570428 -0.448722 -17.608555 -2.038820 0.458744 0.000000 0.000000 0.000000 -12.000000 0.000000 0.000000 2.015553 -5.695543 -0.066510 79.057236 -34.778881 -70.308708 -12.386580 34.349049 -56.310928 11.597851 0.417599 0.431500 -2.106226 5.524946 -0.099819 -69.490860 31.134737 -64.006775 10.153439 -25.276749 -66.628098 0.692357 -14.053212 -10.717594 -15.540453 11.525254 -0.399358 27.540377 -3.359848 -2.040709 14.678561 7.410413 -6.532968 -5.306323 -15.953133 -1.217407 20.979898 3.133467 1.205270 20.498032 -0.033438 8.716957 
0.695891 71.232353 -1.041187 0.000000 0.000000 0.000000 10.720715 -1.143243 -0.332697 -17.835737 -0.477430 0.177354 0.000000 0.000000 0.000000 -9.000000 0.000000 0.000000 2.017145 -5.694235 -0.065720 74.662209 -33.396542 -64.595055 -21.706209 36.109898 -58.443428 11.757263 0.701222 0.424761 -2.089419 5.560069 -0.114185 -66.070641 31.388254 -67.358315 20.503271 -22.272207 -70.040237 0.725554 -14.147773 -11.790511 -17.789993 11.337837 -0.986988 33.102268 -3.508023 -2.609184 10.552019 5.409423 -6.285339 -12.550620 -14.227569 0.049177 32.700142 3.288664 2.393944 10.060901 -0.654707 7.463698 
0.408874 72.796944 -0.917069 0.000000 0.000000 0.000000 5.034289 -0.716057 -0.216672 -18.062920 1.083961 -0.104036 0.000000 0.000000 0.000000 -6.000000 0.000000 0.000000 2.018737 -5.692926 -0.064930 70.267181 -32.014202 -58.881401 -31.025837 37.870747 -60.575928 11.916676 0.984844 0.418021 -2.072613 5.595192 -0.128551 -62.650425 31.641773 -70.709854 30.853104 -19.267666 -73.452377 0.758751 -14.242332 -12.863428 -20.039534 11.150420 -1.574617 38.664162 -3.656198 -3.177659 6.425477 3.408433 -6.037710 -19.794916 -12.502005 1.315761 44.420387 3.443860 3.582618 -0.376230 -1.275977 6.210439 
0.121856 71.604866 -0.792950 0.000000 0.000000 0.000000 -0.652137 -0.288871 -0.100647 -18.290104 2.645351 -0.385426 0.000000 0.000000 0.000000 -3.000000 0.000000 0.000000 2.020328 -5.691618 -0.064141 65.872154 -30.631865 -53.167751 -40.345467 39.631596 -62.708431 12.076087 1.268467 0.411282 -2.055806 5.630315 -0.142917 -59.230209 31.895290 -74.061394 41.202938 -16.263126 -76.864510 0.791948 -14.336893 -13.936345 -22.289074 10.963003 -2.162247 44.226055 -3.804372 -3.746134 2.298935 1.407443 -5.790082 -27.039213 -10.776441 2.582345 56.140629 3.599057 4.771293 -10.813360 -1.897247 4.957179 
-0.187701 69.462921 -0.937652 0.000000 0.000000 0.000000 -3.038723 0.261978 0.082619 -13.197425 1.637492 -0.235742 0.000000 0.000000 0.000000 -1.500000 0.000000 0.000000 2.021124 -5.690964 -0.063746 64.551773 -30.385141 -43.856377 -46.098969 42.228718 -63.490318 12.155793 1.410278 0.407912 -2.047402 5.647876 -0.150099 -57.520103 32.022049 -75.737167 48.694679 -17.088558 -77.886627 0.808547 -14.384173 -10.231415 -26.123039 11.008033 -2.788630 56.300934 -3.642997 -4.982769 -6.332884 0.488952 -5.232767 -30.739498 -10.571552 3.153031 63.038864 3.484823 5.471947 -16.958532 -1.565094 4.598730 
-0.497256 65.579689 -1.082355 0.000000 0.000000 0.000000 -5.425309 0.812827 0.265885 -8.104746 0.629634 -0.086059 0.000000 0.000000 0.000000 0.000000 0.000000 0.000000 2.021920 -5.690310 -0.063351 63.231392 -30.138418 -34.545002 -51.852470 44.825840 -64.272202 12.235499 1.552089 0.404543 -2.038999 5.665438 -0.157282 -55.809994 32.148808 -77.412933 56.186417 -17.913988 -78.908745 0.825145 -14.431454 -6.526485 -29.957005 11.053062 -3.415013 68.375816 -3.481622 -6.219405 -14.964704 -0.429540 -4.675453 -34.439781 -10.366663 3.723718 69.937096 3.370590 6.172600 -23.103704 -1.232942 4.240281 
0.174042 59.108204 -2.985002 0.000000 0.000000 0.000000 2.602082 1.863609 0.531093 -11.210255 1.169354 -0.147174 0.000000 0.000000 0.000000 -5.713233 0.000000 0.000000 2.022467 -5.689860 -0.063079 50.179352 -30.954363 -19.547638 -65.278809 48.890972 -66.042252 11.938601 0.564487 0.514185 -2.032860 5.674918 -0.128946 -48.984039 33.392052 -50.520100 58.262123 -24.448009 -79.431732 0.772663 -14.663857 -7.396220 -29.843044 11.778108 -4.484031 62.658417 -3.573652 -5.537836 -20.449451 5.213387 -7.715512 -35.867096 -10.601247 6.119060 67.568176 3.260929 5.770572 -23.629719 -4.858596 8.002981 
0.845339 51.577442 -4.887650 0.000000 0.000000 0.000000 10.629474 2.914391 0.796300 -14.315764 1.709074 -0.208290 0.000000 0.000000 0.000000 -11.426466 0.000000 0.000000 2.023014 -5.689410 -0.062808 37.127312 -31.770308 -4.550273 -78.705139 52.956104 -67.812294 11.641701 -0.423115 0.623827 -2.026721 5.684399 -0.100610 -42.158089 34.635300 -23.627268 60.337830 -30.982031 -79.954712 0.720181 -14.896258 -8.265954 -29.729082 12.503153 -5.553049 56.941021 -3.665682 -4.856267 -25.934200 10.856315 -10.755571 -37.294411 -10.835831 8.514402 65.199257 3.151268 5.368544 -24.155733 -8.484250 11.765682 
0.870268 44.818676 -5.986827 0.000000 0.000000 0.000000 24.314737 1.457196 0.398150 -12.657883 0.854537 -0.104145 0.000000 0.000000 0.000000 -14.713233 0.000000 0.000000 2.022467 -5.689860 -0.063079 4.502676 -32.672550 24.336252 -71.348587 51.745628 -69.935135 12.755242 -0.764034 0.628230 -2.024321 5.687355 -0.081980 -19.682545 35.735580 9.177752 57.796761 -40.323318 -79.861832 0.785976 -14.643921 -9.062809 -36.710094 13.843190 -7.704284 66.138298 -3.228278 -5.703420 -27.692087 13.749855 -12.563456 -39.146862 -14.482721 8.544505 67.868904 2.894745 5.552069 -22.845848 -9.323277 12.760902 
0.895196 39.713333 -7.086004 0.000000 0.000000 0.000000 38.000000 0.000000 0.000000 -11.000000 0.000000 0.000000 0.000000 0.000000 0.000000 -18.000000 0.000000 0.000000 2.021920 -5.690310 -0.063351 -28.121960 -33.574795 53.222778 -63.992035 50.535152 -72.057976 13.868784 -1.104952 0.632633 -2.021920 5.690310 -0.063351 2.793000 36.835857 41.982773 55.255692 -49.664604 -79.768944 0.851772 -14.391584 -9.859664 -49.866913 20.526152 -12.591006 82.834076 -2.225963 -7.094193 -31.213135 14.101647 -17.829716 -52.779469 -23.515118 16.628551 85.239075 1.787326 6.860849 -26.342224 -6.385639 21.492350 
0.968414 37.608971 -7.532782 0.000000 0.000000 0.000000 42.556030 0.310562 0.145952 -6.436939 -0.062196 -0.049295 0.000000 0.000000 0.000000 -18.000000 0.000000 0.000000 2.012400 -5.698200 -0.068100 -48.682201 -29.355600 71.943604 -7.475400 27.711100 -76.360298 14.153600 -0.838000 1.350800 -2.021900 5.690300 -0.063400 49.320099 16.663799 53.283001 13.819800 -54.008999 -77.237900 0.559000 -12.047200 -12.267400 -54.528091 20.507118 -14.352152 88.664162 -1.796654 -7.481087 -32.649529 13.773457 -18.564978 -57.538067 -23.652079 18.974028 90.568802 1.367575 7.182644 -27.498734 -5.698900 22.696196 
1.023328 36.216076 -7.867866 0.000000 0.000000 0.000000 42.477203 0.758364 0.315554 -7.326920 0.477988 -0.076649 0.000000 0.000000 0.000000 -18.000000 0.000000 0.000000 2.012387 -5.698181 -0.068095 -48.682182 -29.355595 71.943611 -7.475421 27.711098 -76.360306 14.153603 -0.837998 1.350777 -2.021910 5.690305 -0.063376 49.320076 16.663780 53.283012 13.819796 -54.009010 -77.237900 0.559002 -12.047195 -12.267391 -58.025368 20.492399 -15.673245 93.028015 -1.482052 -7.771725 -33.752647 13.375168 -19.088348 -61.099747 -23.749847 20.734432 94.570801 1.064707 7.421122 -28.440170 -4.968669 23.550991 
